# xmcd
#
# Track frame offsets: 
#        150
#        17955
#        31725
#        44427
#        64692
#        77045
#        93057
#        108107
#        123532
#        152945
#        168907
#        191120
#        214620
#        228945
#
# Disc length: 3243 seconds
#
# Revision: 0
# Processed by: cddbd v1.5.2PL0 Copyright (c) Steve Scherf et al.
# Submitted via: ExactAudioCopy v1.0b1
#
DISCID=ad0ca90e
DTITLE=Frank Wakefield And The Good Old Boys - Frank Wakefield And The
DTITLE=Good Old Boys
DYEAR=1992
DGENRE=Bluegrass
TTITLE0=Bluegrass Breakdown
TTITLE1=Ashes of Love
TTITLE2=Deep Elm Blues
TTITLE3=Dim Lights, Thick Smoke
TTITLE4=Johnny the Blacksmith
TTITLE5=On Top of Old Smokey
TTITLE6=New Camptown Races
TTITLE7=David, David
TTITLE8=Jesus Loves His Mandolin Player #2
TTITLE9=On and On
TTITLE10=Glendale Train
TTITLE11=Barefoot Nellie
TTITLE12=Walking in Jerusalem
TTITLE13=Panama Red
EXTD=
EXTT0=
EXTT1=
EXTT2=
EXTT3=
EXTT4=
EXTT5=
EXTT6=
EXTT7=
EXTT8=
EXTT9=
EXTT10=
EXTT11=
EXTT12=
EXTT13=
PLAYORDER=
